# xmcd
# Track frame offsets:
# 150
# 13680
# 27772
# 42067
# 56627
# 70332
# 84907
# 98370
# 113530
# 128270
# 139125
# 154945
# 167060
# 181117
# 190752
# 203902
# 216090
# 230255
# 247782
# 266175
# 280100
# 297735
# 310752
#
# Disc length: 4352 seconds
# Revision: 0
# Processed by: cddbd v1.4PL0 Copyright (c) Steve Scherf et al.
# Submitted via: VisiTrax 2.9.5.180 - For more info visit www.synapsa.com
#
DISCID=3210fe17
DTITLE=Peter Vest - Bænkevarmer
DYEAR=1988
DGENRE=
TTITLE0=Peter Vest - Lille Lune Linda
TTITLE1=Peter Vest/Marianne Knorr - Min Allerbedste Ven
TTITLE2=Peter Vest - Vi Er Ikke Bange
TTITLE3=Peter Vest - Kærlighed Ved Sidste Blik
TTITLE4=Peter Vest - Veras Melodi
TTITLE5=Peter Vest - Jeg Savner Dig I Sengen
TTITLE6=Peter Vest - Jeg Elsker Kun Dig
TTITLE7=Peter Vest - Solskinsvejr I September
TTITLE8=Peter Vest - Verner
TTITLE9=Peter Vest - På En Grøftekant I Ølgod
TTITLE10=Peter Vest - Morgen Ved Øresund
TTITLE11=Peter Vest - Fridag I Solskin
TTITLE12=Peter Vest - Dorthe
TTITLE13=Peter Vest - Kærlighedens Sprog
TTITLE14=Peter Vest - Nat På Veras Kammer
TTITLE15=Peter Vest - Lykken er ingen Lænkehund
TTITLE16=Peter Vest - Prøv' At Flyv' Høj're
TTITLE17=Peter Vest - Veras Vinterven
TTITLE18=Peter Vest - Over Byens Huse
TTITLE19=Peter Vest - Solvej Min Sommersang
TTITLE20=Peter Vest - Bad Old Days
TTITLE21=Peter Vest - Hvorfor Er Vi Så Bange For Hinanden?
TTITLE22=Peter Vest - Nu Er Jord Og Himmel Stille
EXTD=
EXTT0=
EXTT1=
EXTT2=
EXTT3=
EXTT4=
EXTT5=
EXTT6=
EXTT7=
EXTT8=
EXTT9=
EXTT10=
EXTT11=
EXTT12=
EXTT13=
EXTT14=
EXTT15=
EXTT16=
EXTT17=
EXTT18=
EXTT19=
EXTT20=
EXTT21=
EXTT22=
PLAYORDER=
